<svg width="96" height="35" viewBox="0 0 96 35" fill="none" xmlns="http://www.w3.org/2000/svg">
<path d="M34.8 2.45L37.7 2.8C37.1 5.4 36.2833 8.45 35.25 11.95C34.25 15.4167 33.3333 18.2333 32.5 20.4C31.6667 22.5333 30.75 24.6667 29.75 26.8C28.7833 28.9 27.75 30.5667 26.65 31.8C25.55 33 24.4833 33.6 23.45 33.6C22.4167 33.6 21.65 33.2167 21.15 32.45C20.6833 31.6833 20.45 30.3333 20.45 28.4C20.45 26.4333 20.7333 22.3333 21.3 16.1C21.8667 9.83333 22.15 6.43333 22.15 5.9C22.1833 5.33333 22.05 5.05 21.75 5.05C21.3833 5.05 20.95 5.56667 20.45 6.6C19.95 7.6 19.5667 8.36667 19.3 8.9C18.6 10.4667 18.15 11.5667 17.95 12.2C16.0833 16.4 14.4167 19.8667 12.95 22.6C11.4833 25.3333 9.8 27.8667 7.9 30.2C7.23333 31 6.28333 31.8167 5.05 32.65C3.81667 33.4833 2.66667 34.1167 1.6 34.55L0.5 31.6C3.26667 30.4333 5.76667 28.4167 8 25.55C10.2333 22.65 12.5333 18.6167 14.9 13.45C17.3 8.28333 19.0167 4.8 20.05 3C21.2167 1.1 22.4 0.15 23.6 0.15C24.3667 0.15 24.9667 0.416666 25.4 0.949998C25.8333 1.48333 26.05 2.18333 26.05 3.05C26.05 3.88333 25.75 7.38333 25.15 13.55C24.5833 19.7167 24.3 23.6667 24.3 25.4C24.3 27.1333 24.3667 28.2667 24.5 28.8C24.6667 29.3 24.9333 29.55 25.3 29.55C25.7667 29.55 26.2667 29.05 26.8 28.05C28.6333 24.4833 31.3 15.95 34.8 2.45ZM51.9316 18.15C52.7983 19.5833 53.2316 21.1667 53.2316 22.9C53.2316 25.6 52.2983 28.0167 50.4316 30.15C48.565 32.25 46.365 33.3 43.8316 33.3C41.8983 33.3 40.3816 32.75 39.2816 31.65C38.215 30.5167 37.6816 28.9667 37.6816 27C37.6816 23.8333 38.915 21 41.3816 18.5C43.8483 15.9667 46.615 14.7 49.6816 14.7C50.2483 14.7 50.6483 14.7167 50.8816 14.75L51.0316 16.4C48.365 16.4 46.1483 17.1667 44.3816 18.7C42.615 20.2333 41.7316 22.2 41.7316 24.6C41.7316 26.0333 42.0816 27.2 42.7816 28.1C43.4816 28.9667 44.4983 29.4 45.8316 29.4C47.1983 29.4 48.2816 28.8 49.0816 27.6C49.8816 26.4 50.2816 25 50.2816 23.4C50.2816 21.7667 49.965 20.2833 49.3316 18.95L51.9316 18.15ZM70.5844 15.1L72.2844 16.45C67.851 22.2833 64.851 27.15 63.2844 31.05C62.751 32.35 61.9844 33 60.9844 33C60.351 33 59.7844 32.6667 59.2844 32C58.8177 31.3333 58.501 30.7333 58.3344 30.2C58.201 29.6333 57.9677 28.4667 57.6344 26.7C57.301 24.9333 56.9344 23.1 56.5344 21.2C56.1344 19.2667 55.801 17.8333 55.5344 16.9C55.301 15.9333 55.1344 15.3 55.0344 15C54.9677 14.7 54.8344 14.45 54.6344 14.25C54.4344 14.0167 54.3177 13.8667 54.2844 13.8L57.5344 14.1C58.501 16.4667 59.2677 19.0333 59.8344 21.8C59.9677 22.3667 60.201 23.5167 60.5344 25.25C60.8677 26.95 61.1344 28.2833 61.3344 29.25C63.1677 25.7167 64.7677 22.85 66.1344 20.65C67.5344 18.4167 69.0177 16.5667 70.5844 15.1ZM94.6785 27.95L95.8285 28.8C95.3618 29.8 94.4952 30.75 93.2285 31.65C91.9952 32.55 90.8618 33 89.8285 33C87.8618 33 86.8785 31.9667 86.8785 29.9C86.8785 28.9333 87.1285 27.7833 87.6285 26.45L85.7785 28.35C83.9785 30.1833 82.4118 31.4167 81.0785 32.05C79.7785 32.6833 78.4952 33 77.2285 33C75.9618 33 74.9952 32.65 74.3285 31.95C73.6952 31.2167 73.3785 30.2167 73.3785 28.95C73.3785 26.6167 74.2785 24.3167 76.0785 22.05C77.8785 19.75 80.1785 17.8833 82.9785 16.45C85.7785 15.0167 88.5785 14.2833 91.3785 14.25L91.4785 15.9L89.3785 16.35C86.3452 17.0167 83.6618 18.35 81.3285 20.35C79.0285 22.35 77.8785 24.35 77.8785 26.35C77.8785 28.3167 78.6785 29.3 80.2785 29.3C81.7785 29.3 83.6285 28.25 85.8285 26.15C88.0285 24.05 89.8618 21.5833 91.3285 18.75L93.4285 20C91.3619 24.1667 90.3285 26.8167 90.3285 27.95C90.3285 28.4167 90.4785 28.8167 90.7785 29.15C91.1119 29.45 91.4285 29.6 91.7285 29.6C92.0618 29.6 92.2785 29.5833 92.3785 29.55C92.4785 29.5167 92.5785 29.4833 92.6785 29.45C92.7785 29.3833 92.8952 29.3 93.0285 29.2C93.1952 29.1 93.3285 29 93.4285 28.9C93.5618 28.8 93.7618 28.65 94.0285 28.45C94.2952 28.25 94.5118 28.0833 94.6785 27.95Z" fill="#004182"/>
</svg>
